<?xml version="1.0" encoding="utf-8"?>
<!-- Generator: Adobe Illustrator 19.2.1, SVG Export Plug-In . SVG Version: 6.00 Build 0)  -->
<svg version="1.1" id="Layer_1" xmlns="http://www.w3.org/2000/svg" xmlns:xlink="http://www.w3.org/1999/xlink" x="0px" y="0px"
	 viewBox="0 0 512 512" style="enable-background:new 0 0 512 512;" xml:space="preserve">
<style type="text/css">
	.st0{fill:#1D1D1B;}
</style>
<g>
	<g>
		<path class="st0" d="M326,347.7l-18-10.4c0.5-3.1,1-6.3,1-9.6c0-3.3-0.4-6.5-1-9.6l18-10.4c8.4-4.9,11.3-15.7,6.5-24.1
			c-4.9-8.5-15.7-11.4-24.1-6.5l-18.2,10.5c-4.9-4.1-10.4-7.4-16.5-9.6v-20.9c0-9.8-7.9-17.7-17.7-17.7s-17.7,7.9-17.7,17.7v20.9
			c-6.1,2.2-11.6,5.5-16.5,9.6l-18.1-10.5c-8.5-4.9-19.3-2-24.2,6.5c-4.9,8.4-1.9,19.3,6.5,24.1l18,10.4c-0.6,3.1-1,6.3-1,9.6
			s0.4,6.5,1,9.6l-18,10.4c-8.5,4.9-11.4,15.8-6.5,24.2s15.7,11.3,24.1,6.4l18.2-10.4c4.9,4.1,10.4,7.4,16.5,9.6v20.9
			c0,9.7,7.9,17.6,17.7,17.6c9.8,0,17.7-7.9,17.7-17.6v-20.9c6.1-2.2,11.7-5.4,16.5-9.6l18.2,10.5c8.5,4.9,19.2,2,24.1-6.4
			C337.4,363.4,334.5,352.6,326,347.7z M256,345.4c-9.8,0-17.7-7.9-17.7-17.7S246.3,310,256,310s17.7,7.9,17.7,17.6
			S265.8,345.4,256,345.4z M400,64c-5.3,0-10.6,0.4-15.8,1.1C354.3,24.4,307.2,0,256,0s-98.3,24.4-128.2,65.1
			c-5.2-0.8-10.5-1.1-15.8-1.1C50.3,64,0,114.3,0,176s50.3,112,112,112c11.8,0,23.3-2.2,34.4-5.8c1.1-5.1,2.7-10,5.4-14.6
			c3.9-6.9,9.6-12.3,16-16.5c-3.3-3.2-6.9-6.1-9.9-9.7c-13,9.2-28.8,14.7-45.9,14.7c-44.2,0-80-35.8-80-80s35.8-80,80-80
			c10.8,0,21.1,2.2,30.4,6.1C163.7,60.7,206.3,32,256,32s92.3,28.7,113.5,70.1c9.4-3.9,19.7-6.1,30.5-6.1c44.2,0,80,35.8,80,80
			s-35.8,80-80,80c-17.1,0-32.9-5.5-45.9-14.7c-2.9,3.6-6.6,6.5-9.9,9.7c6.5,4.2,12.1,9.7,16,16.6c2.7,4.6,4.4,9.6,5.4,14.6
			c11.1,3.6,22.6,5.8,34.4,5.8c61.8,0,112-50.3,112-112S461.8,64,400,64z"/>
	</g>
</g>
</svg>
