<?xml version="1.0" encoding="utf-8"?>
<!-- Generator: Adobe Illustrator 19.2.1, SVG Export Plug-In . SVG Version: 6.00 Build 0)  -->
<svg version="1.1" id="Layer_1" xmlns="http://www.w3.org/2000/svg" xmlns:xlink="http://www.w3.org/1999/xlink" x="0px" y="0px"
	 viewBox="0 0 512 512" style="enable-background:new 0 0 512 512;" xml:space="preserve">
<style type="text/css">
	.st0{fill:#1D1D1B;}
</style>
<g>
	<g>
		<path class="st0" d="M400,64c-5.3,0-10.6,0.4-15.8,1.1C354.3,24.4,307.2,0,256,0s-98.3,24.4-128.2,65.1
			c-5.2-0.8-10.5-1.1-15.8-1.1C50.3,64,0,114.3,0,176s50.3,112,112,112c13.7,0,27.1-2.5,39.7-7.3c12.3,10.7,26.3,19,40.9,25.4
			l24.9-24.9c-23.5-7.6-44.2-21.3-59.6-39.9c-13,9.2-28.8,14.7-45.9,14.7c-44.2,0-80-35.8-80-80s35.8-80,80-80
			c10.8,0,21.1,2.2,30.4,6.1C163.7,60.7,206.3,32,256,32s92.3,28.7,113.5,70.1c9.4-3.9,19.7-6.1,30.5-6.1c44.2,0,80,35.8,80,80
			s-35.8,80-80,80c-17.1,0-32.9-5.5-45.9-14.7c-10.4,12.5-23.3,22.7-37.6,30.6L303,312.3c20.9-6.6,40.5-16.9,57.3-31.6
			c12.6,4.8,26,7.3,39.7,7.3c61.8,0,112-50.3,112-112S461.8,64,400,64z M192,352l32,32l-32,96l96-96l-32-32l32-96L192,352z"/>
	</g>
</g>
</svg>
