<?xml version="1.0" encoding="UTF-8" standalone="no"?>
<svg
   xmlns:dc="http://purl.org/dc/elements/1.1/"
   xmlns:cc="http://creativecommons.org/ns#"
   xmlns:rdf="http://www.w3.org/1999/02/22-rdf-syntax-ns#"
   xmlns:svg="http://www.w3.org/2000/svg"
   xmlns="http://www.w3.org/2000/svg"
   xmlns:sodipodi="http://sodipodi.sourceforge.net/DTD/sodipodi-0.dtd"
   xmlns:inkscape="http://www.inkscape.org/namespaces/inkscape"
   viewBox="0 -256 1792 1792"
   id="svg3545"
   version="1.1"
   inkscape:version="0.48.3.1 r9886"
   width="100%"
   height="100%"
   sodipodi:docname="umbrella_font_awesome.svg">
  <metadata
     id="metadata3555">
    <rdf:RDF>
      <cc:Work
         rdf:about="">
        <dc:format>image/svg+xml</dc:format>
        <dc:type
           rdf:resource="http://purl.org/dc/dcmitype/StillImage" />
      </cc:Work>
    </rdf:RDF>
  </metadata>
  <defs
     id="defs3553" />
  <sodipodi:namedview
     pagecolor="#ffffff"
     bordercolor="#666666"
     borderopacity="1"
     objecttolerance="10"
     gridtolerance="10"
     guidetolerance="10"
     inkscape:pageopacity="0"
     inkscape:pageshadow="2"
     inkscape:window-width="640"
     inkscape:window-height="480"
     id="namedview3551"
     showgrid="false"
     inkscape:zoom="0.13169643"
     inkscape:cx="896"
     inkscape:cy="896"
     inkscape:window-x="0"
     inkscape:window-y="25"
     inkscape:window-maximized="0"
     inkscape:current-layer="svg3545" />
  <g
     transform="matrix(1,0,0,-1,68.338983,1308.2034)"
     id="g3547">
    <path
       d="M 896,708 V 128 q 0,-104 -76,-180 -76,-76 -180,-76 -104,0 -180,76 -76,76 -76,180 0,26 19,45 19,19 45,19 26,0 45,-19 19,-19 19,-45 0,-50 39,-89 39,-39 89,-39 50,0 89,39 39,39 39,89 v 580 q 33,11 64,11 31,0 64,-11 z m 768,-27 q 0,-13 -9.5,-22.5 -9.5,-9.5 -22.5,-9.5 -11,0 -23,10 -49,46 -93,69 -44,23 -102,23 -68,0 -128,-37 -60,-37 -103,-97 -7,-10 -17.5,-28 -10.5,-18 -14.5,-24 -11,-17 -28,-17 -18,0 -29,17 -4,6 -14.5,24 -10.5,18 -17.5,28 -43,60 -102.5,97 Q 900,751 832,751 764,751 704.5,714 645,677 602,617 595,607 584.5,589 574,571 570,565 q -11,-17 -29,-17 -17,0 -28,17 -4,6 -14.5,24 -10.5,18 -17.5,28 -43,60 -103,97 -60,37 -128,37 -58,0 -102,-23 Q 104,705 55,659 43,649 32,649 19,649 9.5,658.5 0,668 0,681 q 0,5 1,7 45,183 172.5,319.5 127.5,136.5 298,204.5 170.5,68 360.5,68 140,0 274.5,-40 134.5,-40 246.5,-113.5 112,-73.5 194.5,-187 Q 1630,826 1663,688 q 1,-2 1,-7 z m -768,727 v -98 q -42,2 -64,2 -22,0 -64,-2 v 98 q 0,26 19,45 19,19 45,19 26,0 45,-19 19,-19 19,-45 z"
       id="path3549"
       inkscape:connector-curvature="0"
       style="fill:currentColor" />
  </g>
</svg>
